<?xml version="1.0" encoding="utf-8"?>
<!-- Generator: Adobe Illustrator 22.0.1, SVG Export Plug-In . SVG Version: 6.00 Build 0)  -->
<svg version="1.1" id="Layer_1" xmlns="http://www.w3.org/2000/svg" xmlns:xlink="http://www.w3.org/1999/xlink" x="0px" y="0px"
	 viewBox="0 0 46.7 54" style="enable-background:new 0 0 46.7 54;" xml:space="preserve">
<style type="text/css">
	.st0{fill:#231F20;}
</style>
<g>
	<path class="st0" d="M24.3,6C12,6,2,16,2,28.3c0,12.3,10,22.3,22.3,22.3c12.3,0,22.3-10,22.3-22.3C46.7,16,36.7,6,24.3,6L24.3,6z
		 M24.3,48.7C13.1,48.7,4,39.6,4,28.3C4,17.1,13.1,8,24.3,8c11.2,0,20.3,9.1,20.3,20.3C44.7,39.6,35.6,48.7,24.3,48.7L24.3,48.7z
		 M24.3,48.7"/>
	<path class="st0" d="M24.2,21.1c-0.8,0-1.5,0.7-1.5,1.5v17c0,0.8,0.7,1.5,1.5,1.5c0.8,0,1.5-0.7,1.5-1.5v-17
		C25.7,21.7,25,21.1,24.2,21.1L24.2,21.1z M24.2,21.1"/>
	<path class="st0" d="M26.1,16.9c0,1-0.8,1.8-1.8,1.8c-1,0-1.8-0.8-1.8-1.8c0-1,0.8-1.8,1.8-1.8C25.3,15.1,26.1,15.9,26.1,16.9
		L26.1,16.9z M26.1,16.9"/>
</g>
</svg>
